HIERARCHY
ROOT Hips
{
	OFFSET 0.000000 0.000000 0.000000
	CHANNELS 6 Xposition Yposition Zposition Zrotation Yrotation Xrotation 
	JOINT LowerBack
	{
		OFFSET 0.000000 0.000000 0.000000
		CHANNELS 3 Zrotation Yrotation Xrotation
		JOINT Spine
		{
			OFFSET 0.028270 2.035590 -0.193380
			CHANNELS 3 Zrotation Yrotation Xrotation
			JOINT Spine1
			{
				OFFSET 0.056720 2.048850 -0.042750
				CHANNELS 3 Zrotation Yrotation Xrotation
				JOINT Neck
				{
					OFFSET 0.000000 0.000000 0.000000
					CHANNELS 3 Zrotation Yrotation Xrotation
					JOINT Neck1
					{
						OFFSET -0.054170 1.746240 0.172020
						CHANNELS 3 Zrotation Yrotation Xrotation
						JOINT Head
						{
							OFFSET 0.104070 1.761360 -0.123970
							CHANNELS 3 Zrotation Yrotation Xrotation
							End Site
							{
								OFFSET 0.000000 0.000000 0.000000
							}
						}
					}
				}
				JOINT LeftShoulder
				{
					OFFSET 0.000000 0.000000 0.000000
					CHANNELS 3 Zrotation Yrotation Xrotation
					JOINT LeftArm
					{
						OFFSET 3.362410 1.200890 -0.311210
						CHANNELS 3 Zrotation Yrotation Xrotation
						JOINT LeftForeArm
						{
							OFFSET 4.983000 -0.000000 -0.000000
							CHANNELS 3 Zrotation Yrotation Xrotation
							JOINT LeftHand
							{
								OFFSET 3.483560 -0.000000 -0.000000
								CHANNELS 3 Zrotation Yrotation Xrotation
								JOINT LeftFingerBase
								{
									OFFSET 0.000000 0.000000 0.000000
									CHANNELS 3 Zrotation Yrotation Xrotation
									JOINT LeftHandIndex1
									{
										OFFSET 0.715260 -0.000000 -0.000000
										CHANNELS 3 Zrotation Yrotation Xrotation
										End Site
										{
											OFFSET 0.000000 0.000000 0.000000
										}
									}
								}
								JOINT LThumb
								{
									OFFSET 0.000000 0.000000 0.000000
									CHANNELS 3 Zrotation Yrotation Xrotation
									End Site
									{
										OFFSET 0.000000 0.000000 0.000000
									}
								}
							}
						}
					}
				}
				JOINT RightShoulder
				{
					OFFSET 0.000000 0.000000 0.000000
					CHANNELS 3 Zrotation Yrotation Xrotation
					JOINT RightArm
					{
						OFFSET -3.136600 1.374050 -0.404650
						CHANNELS 3 Zrotation Yrotation Xrotation
						JOINT RightForeArm
						{
							OFFSET -5.241900 -0.000000 -0.000000
							CHANNELS 3 Zrotation Yrotation Xrotation
							JOINT RightHand
							{
								OFFSET -3.444170 -0.000000 -0.000000
								CHANNELS 3 Zrotation Yrotation Xrotation
								JOINT RightFingerBase
								{
									OFFSET 0.000000 0.000000 0.000000
									CHANNELS 3 Zrotation Yrotation Xrotation
									JOINT RightHandIndex1
									{
										OFFSET -0.622530 -0.000000 -0.000000
										CHANNELS 3 Zrotation Yrotation Xrotation
										End Site
										{
											OFFSET 0.000000 0.000000 0.000000
										}
									}
								}
								JOINT RThumb
								{
									OFFSET 0.000000 0.000000 0.000000
									CHANNELS 3 Zrotation Yrotation Xrotation
									End Site
									{
										OFFSET 0.000000 0.000000 0.000000
									}
								}
							}
						}
					}
				}
			}
		}
	}
}
}
MOTION
Frames: 12
Frame Time: 0.008333
2.597913 17.321918 0.378609 -175.961213 -46.004070 -174.349929 4.099830 -5.812617 -9.808476 1.532551 -6.283961 -4.331546 -1.906749 -6.429101 1.399943 14.197213 -23.474535 -8.176772 -0.264425 -0.009888 -0.006382 0.000000 0.000000 0.000000 23.380797 -3.916420 1.114633 -7.114465 -22.027967 -26.663014 0.860324 -40.769426 -0.053064 4.858931 -4.651542 -0.226380 -0.023890 0.659357 -0.000000 0.000000 0.000000 0.000000 0.000000 0.000000 0.000000 8.074517 -22.608815 -1.962254 23.599598 23.380174 -6.784779 -179.752970 66.954443 179.928661 -8.504745 7.790113 -0.637137 0.141887 -0.618302 -0.000000 0.000000 0.000000 0.000000 0.000000 0.000000 0.000000 
2.602106 17.322013 0.385309 -176.018008 -46.219896 -174.404779 4.230286 -5.783103 -9.662641 1.522288 -6.262470 -4.326307 -2.016134 -6.403965 1.353937 13.959190 -23.595017 -7.931607 -0.355278 -0.021831 0.063670 0.000000 0.000000 0.000000 23.114252 -3.782318 0.597256 -8.619967 -21.251256 -27.081214 0.953971 -45.795993 -0.067549 5.857235 -4.937533 -0.288353 -0.014526 0.681849 -0.000000 0.000000 0.000000 0.000000 0.000000 0.000000 0.000000 7.875865 -22.683127 -1.915196 24.136276 22.903987 -6.839033 -179.812526 66.904905 179.929510 -8.526098 7.858983 -0.644307 0.147851 -0.618218 -0.000000 0.000000 0.000000 0.000000 0.000000 0.000000 0.000000 
2.605629 17.322136 0.391557 -176.077342 -46.491981 -174.450135 4.351376 -5.773990 -9.526604 1.512319 -6.260560 -4.321976 -2.123144 -6.397965 1.312561 13.707190 -23.686669 -7.689159 -0.450392 -0.033949 0.132863 0.000000 0.000000 0.000000 22.886656 -3.667402 0.097908 -10.244869 -20.314352 -27.405117 0.961642 -50.941443 -0.080688 6.725408 -5.138667 -0.343520 -0.004648 0.698773 -0.000000 0.000000 0.000000 0.000000 0.000000 0.000000 0.000000 7.683360 -22.749622 -1.878274 24.673553 22.476122 -6.885068 -179.866203 66.895589 179.930247 -8.560859 7.890756 -0.649678 0.153524 -0.617023 0.000000 0.000000 0.000000 0.000000 0.000000 0.000000 0.000000 
2.608511 17.322094 0.396934 -176.138860 -46.800269 -174.478888 4.456593 -5.777210 -9.407046 1.501755 -6.270209 -4.317910 -2.225690 -6.403404 1.282141 13.451972 -23.748229 -7.459679 -0.548081 -0.045932 0.198302 0.000000 0.000000 0.000000 22.689226 -3.564523 -0.361345 -11.911903 -19.251365 -27.598724 0.888157 -56.102487 -0.091165 7.382966 -5.267139 -0.385874 0.005962 0.710537 -0.000000 0.000000 0.000000 0.000000 0.000000 0.000000 0.000000 7.507037 -22.797843 -1.851155 25.189761 22.072734 -6.935310 -179.913659 66.901033 179.930928 -8.599526 7.874888 -0.651447 0.158721 -0.614556 -0.000000 0.000000 0.000000 0.000000 0.000000 0.000000 0.000000 
2.610894 17.321696 0.401154 -176.202856 -47.127104 -174.486818 4.541922 -5.784676 -9.307382 1.490133 -6.283463 -4.312776 -2.321732 -6.412656 1.269476 13.203382 -23.783203 -7.254010 -0.645465 -0.057377 0.256887 0.000000 0.000000 0.000000 22.506042 -3.442773 -0.765738 -13.543541 -18.139890 -27.643253 0.749916 -61.148479 -0.098154 7.780778 -5.336599 -0.411414 0.017308 0.717895 -0.000000 0.000000 0.000000 0.000000 0.000000 0.000000 0.000000 7.352874 -22.822919 -1.834269 25.670927 21.675599 -7.000025 -179.954738 66.900720 179.931613 -8.632622 7.806815 -0.648716 0.163220 -0.610772 0.000000 0.000000 0.000000 0.000000 0.000000 0.000000 0.000000 
2.612890 17.320825 0.404056 -176.267152 -47.458053 -174.472325 4.606054 -5.788880 -9.228863 1.477059 -6.293025 -4.305657 -2.410729 -6.418647 1.278372 12.969693 -23.796613 -7.079347 -0.739641 -0.067953 0.306552 0.000000 0.000000 0.000000 22.324740 -3.277562 -1.108052 -15.084940 -17.050124 -27.535724 0.568988 -65.968628 -0.101299 7.898379 -5.351021 -0.418342 0.029392 0.721583 -0.000000 0.000000 0.000000 0.000000 0.000000 0.000000 0.000000 7.222569 -22.822772 -1.827136 26.110857 21.269644 -7.084925 -179.990027 66.875889 179.932348 -8.651299 7.688119 -0.640685 0.166874 -0.605785 -0.000000 0.000000 0.000000 0.000000 0.000000 0.000000 0.000000 
2.614809 17.319379 0.405620 -176.332293 -47.783974 -174.437059 4.648503 -5.783862 -9.169642 1.461990 -6.292970 -4.295820 -2.492947 -6.415575 1.309638 12.756712 -23.794528 -6.939581 -0.828048 -0.077419 0.346162 0.000000 0.000000 0.000000 22.136232 -3.049898 -1.388128 -16.503539 -16.042256 -27.286462 0.368220 -70.478253 -0.100697 7.744095 -5.308464 -0.406567 0.042234 0.722254 -0.000000 0.000000 0.000000 0.000000 0.000000 0.000000 0.000000 7.115501 -22.798305 -1.828528 26.509963 20.844199 -7.191646 179.979467 66.818502 179.933177 -8.648757 7.526892 -0.627755 0.169579 -0.599800 -0.000000 0.000000 0.000000 0.000000 0.000000 0.000000 0.000000 
2.616821 17.317368 0.405873 -176.395449 -48.100431 -174.384265 4.670298 -5.765763 -9.127166 1.444351 -6.279472 -4.283425 -2.569989 -6.399589 1.360227 12.567935 -23.781876 -6.833601 -0.909082 -0.085698 0.376025 0.000000 0.000000 0.000000 21.939487 -2.765865 -1.609684 -17.788798 -15.133301 -26.918204 0.166360 -74.638561 -0.096728 7.346432 -5.199753 -0.377793 0.055863 0.720294 -0.000000 0.000000 0.000000 0.000000 0.000000 0.000000 0.000000 7.028221 -22.750861 -1.835891 26.874073 20.391881 -7.317067 179.952265 66.724446 179.934125 -8.622244 7.336697 -0.610726 0.171379 -0.593163 -0.000000 0.000000 0.000000 0.000000 0.000000 0.000000 0.000000 
2.619136 17.314851 0.405010 -176.455232 -48.407469 -174.319730 4.673342 -5.733118 -9.095908 1.423908 -6.250938 -4.268149 -2.642958 -6.369039 1.426909 12.404009 -23.763736 -6.759727 -0.981332 -0.092728 0.396601 0.000000 0.000000 0.000000 21.733317 -2.422774 -1.780433 -18.941407 -14.348037 -26.459415 -0.022267 -78.424437 -0.090033 6.752512 -5.018752 -0.335327 0.070242 0.716049 -0.000000 0.000000 0.000000 0.000000 0.000000 0.000000 0.000000 6.955789 -22.684818 -1.847589 27.213369 19.913375 -7.456100 179.927412 66.601149 179.935177 -8.572605 7.135253 -0.591298 0.172316 -0.586256 -0.000000 0.000000 0.000000 0.000000 0.000000 0.000000 0.000000 
2.621908 17.311965 0.403278 -176.508847 -48.708474 -174.251398 4.661682 -5.687010 -9.069692 1.401025 -6.208393 -4.249969 -2.712767 -6.324823 1.505062 12.262994 -23.742644 -6.713964 -1.044242 -0.098551 0.409027 0.000000 0.000000 0.000000 21.520382 -2.030285 -1.908487 -19.974270 -13.681858 -25.941729 -0.189575 -81.843950 -0.081304 6.016137 -4.755236 -0.283573 0.085231 0.709651 -0.000000 0.000000 0.000000 0.000000 0.000000 0.000000 0.000000 6.891651 -22.603634 -1.862143 27.538940 19.416050 -7.601184 179.904243 66.457569 179.936300 -8.505278 6.942787 -0.571472 0.172538 -0.579562 -0.000000 0.000000 0.000000 0.000000 0.000000 0.000000 0.000000 
2.625360 17.308864 0.400725 -176.559622 -49.008320 -174.179833 4.633520 -5.629534 -9.048037 1.374643 -6.153548 -4.231277 -2.781287 -6.268426 1.584920 12.140612 -23.721152 -6.685881 -1.099501 -0.103493 0.416337 0.000000 0.000000 0.000000 21.317713 -1.659143 -1.999383 -20.914010 -13.028864 -25.402620 -0.333754 -84.968393 -0.071175 5.187393 -4.408863 -0.227435 0.100578 0.701043 -0.000000 0.000000 0.000000 0.000000 0.000000 0.000000 0.000000 6.829938 -22.507573 -1.874490 27.862243 18.901823 -7.741300 179.880900 66.308742 179.937446 -8.429168 6.775897 -0.553345 0.172424 -0.573495 -0.000000 0.000000 0.000000 0.000000 0.000000 0.000000 0.000000 
2.629322 17.305760 0.397829 -176.601054 -49.313633 -174.118270 4.598807 -5.565595 -9.020372 1.347303 -6.091527 -4.210005 -2.847034 -6.204948 1.667368 12.030838 -23.698673 -6.676590 -1.146073 -0.107446 0.418203 0.000000 0.000000 0.000000 21.118019 -1.267950 -2.062688 -21.773750 -12.443993 -24.861002 -0.453403 -87.791130 -0.060406 4.326005 -3.979235 -0.172110 0.115873 0.690520 -0.000000 0.000000 0.000000 0.000000 0.000000 0.000000 0.000000 6.762834 -22.402360 -1.888040 28.192707 18.395658 -7.871020 179.859044 66.171925 179.938514 -8.354625 6.653260 -0.538919 0.172011 -0.568483 -0.000000 0.000000 0.000000 0.000000 0.000000 0.000000 0.000000 
